G04 #@! TF.FileFunction,Soldermask,Bot*
%FSLAX46Y46*%
G04 Gerber Fmt 4.6, Leading zero omitted, Abs format (unit mm)*
G04 Created by KiCad (PCBNEW 4.0.7) date Mon Dec  3 14:16:20 2018*
%MOMM*%
%LPD*%
G01*
G04 APERTURE LIST*
%ADD10C,0.100000*%
%ADD11R,2.100000X2.100000*%
%ADD12O,2.100000X2.100000*%
%ADD13R,1.670000X5.480000*%
%ADD14C,2.000000*%
%ADD15R,2.200000X2.200000*%
%ADD16O,2.200000X2.200000*%
%ADD17C,2.100000*%
%ADD18C,1.800000*%
%ADD19O,1.800000X1.800000*%
%ADD20R,2.000000X2.800000*%
%ADD21O,2.000000X2.800000*%
%ADD22C,2.200000*%
G04 APERTURE END LIST*
D10*
D11*
X30480000Y-55626000D03*
D12*
X27940000Y-55626000D03*
X30480000Y-53086000D03*
X27940000Y-53086000D03*
X30480000Y-50546000D03*
X27940000Y-50546000D03*
X30480000Y-48006000D03*
X27940000Y-48006000D03*
X30480000Y-45466000D03*
X27940000Y-45466000D03*
D11*
X70866005Y-59435989D03*
D12*
X70866005Y-61975989D03*
X73406005Y-59435989D03*
X73406005Y-61975989D03*
X75946005Y-59435989D03*
X75946005Y-61975989D03*
X78486005Y-59435989D03*
X78486005Y-61975989D03*
X81026005Y-59435989D03*
X81026005Y-61975989D03*
X83566005Y-59435989D03*
X83566005Y-61975989D03*
X86106005Y-59435989D03*
X86106005Y-61975989D03*
X88646005Y-59435989D03*
X88646005Y-61975989D03*
X91186005Y-59435989D03*
X91186005Y-61975989D03*
X93726005Y-59435989D03*
X93726005Y-61975989D03*
X96266005Y-59435989D03*
X96266005Y-61975989D03*
X98806005Y-59435989D03*
X98806005Y-61975989D03*
X101346005Y-59435989D03*
X101346005Y-61975989D03*
X103886005Y-59435989D03*
X103886005Y-61975989D03*
X106426005Y-59435989D03*
X106426005Y-61975989D03*
X108966005Y-59435989D03*
X108966005Y-61975989D03*
X111506005Y-59435989D03*
X111506005Y-61975989D03*
D13*
X70866000Y-69850000D03*
X73406000Y-69850000D03*
X75946000Y-69850000D03*
X78486000Y-69850000D03*
X81026000Y-69850000D03*
X83566000Y-69850000D03*
X86106000Y-69850000D03*
X88646000Y-69850000D03*
X91186000Y-69850000D03*
X93726000Y-69850000D03*
X96266000Y-69850000D03*
X98806000Y-69850000D03*
X101346000Y-69850000D03*
X103886000Y-69850000D03*
X106426000Y-69850000D03*
X108966000Y-69850000D03*
X111506000Y-69850000D03*
X36830000Y-69850000D03*
X39370000Y-69850000D03*
X41910000Y-69850000D03*
X44450000Y-69850000D03*
X46990000Y-69850000D03*
X49530000Y-69850000D03*
X52070000Y-69850000D03*
X54610000Y-69850000D03*
X57150000Y-69850000D03*
X59690000Y-69850000D03*
D14*
X64770000Y-30734000D03*
X64770000Y-28234000D03*
X64770000Y-36830000D03*
X64770000Y-34330000D03*
X30734000Y-62992000D03*
X30734000Y-60492000D03*
X92456000Y-49276000D03*
X92456000Y-46776000D03*
X92456000Y-31456000D03*
X92456000Y-28956000D03*
X63500000Y-61976000D03*
X63500000Y-59476000D03*
X63500000Y-49276000D03*
X63500000Y-46776000D03*
D15*
X88392000Y-53594000D03*
D16*
X80772000Y-53594000D03*
D15*
X69850000Y-53594000D03*
D16*
X77470000Y-53594000D03*
D11*
X31750000Y-33528000D03*
D17*
X31750000Y-30988000D03*
X34290000Y-33528000D03*
X34290000Y-30988000D03*
X36830000Y-33528000D03*
X36830000Y-30988000D03*
X39370000Y-33528000D03*
X39370000Y-30988000D03*
X41910000Y-33528000D03*
X41910000Y-30988000D03*
X44450000Y-33528000D03*
X44450000Y-30988000D03*
X46990000Y-33528000D03*
X46990000Y-30988000D03*
X49530000Y-33528000D03*
X49530000Y-30988000D03*
X52070000Y-33528000D03*
X52070000Y-30988000D03*
X54610000Y-33528000D03*
X54610000Y-30988000D03*
D18*
X92456000Y-53594000D03*
D19*
X100076000Y-53594000D03*
D18*
X103886000Y-53594000D03*
D19*
X111506000Y-53594000D03*
D18*
X92456000Y-42926000D03*
D19*
X92456000Y-35306000D03*
D18*
X38608000Y-40132000D03*
D19*
X30988000Y-40132000D03*
D20*
X70104000Y-49276000D03*
D21*
X87884000Y-41656000D03*
X72644000Y-49276000D03*
X85344000Y-41656000D03*
X75184000Y-49276000D03*
X82804000Y-41656000D03*
X77724000Y-49276000D03*
X80264000Y-41656000D03*
X80264000Y-49276000D03*
X77724000Y-41656000D03*
X82804000Y-49276000D03*
X75184000Y-41656000D03*
X85344000Y-49276000D03*
X72644000Y-41656000D03*
X87884000Y-49276000D03*
X70104000Y-41656000D03*
D20*
X96520000Y-49276000D03*
D21*
X111760000Y-41656000D03*
X99060000Y-49276000D03*
X109220000Y-41656000D03*
X101600000Y-49276000D03*
X106680000Y-41656000D03*
X104140000Y-49276000D03*
X104140000Y-41656000D03*
X106680000Y-49276000D03*
X101600000Y-41656000D03*
X109220000Y-49276000D03*
X99060000Y-41656000D03*
X111760000Y-49276000D03*
X96520000Y-41656000D03*
D20*
X70104000Y-36576000D03*
D21*
X87884000Y-28956000D03*
X72644000Y-36576000D03*
X85344000Y-28956000D03*
X75184000Y-36576000D03*
X82804000Y-28956000D03*
X77724000Y-36576000D03*
X80264000Y-28956000D03*
X80264000Y-36576000D03*
X77724000Y-28956000D03*
X82804000Y-36576000D03*
X75184000Y-28956000D03*
X85344000Y-36576000D03*
X72644000Y-28956000D03*
X87884000Y-36576000D03*
X70104000Y-28956000D03*
D20*
X96520000Y-36576000D03*
D21*
X111760000Y-28956000D03*
X99060000Y-36576000D03*
X109220000Y-28956000D03*
X101600000Y-36576000D03*
X106680000Y-28956000D03*
X104140000Y-36576000D03*
X104140000Y-28956000D03*
X106680000Y-36576000D03*
X101600000Y-28956000D03*
X109220000Y-36576000D03*
X99060000Y-28956000D03*
X111760000Y-36576000D03*
X96520000Y-28956000D03*
D20*
X41910000Y-49276000D03*
D21*
X59690000Y-41656000D03*
X44450000Y-49276000D03*
X57150000Y-41656000D03*
X46990000Y-49276000D03*
X54610000Y-41656000D03*
X49530000Y-49276000D03*
X52070000Y-41656000D03*
X52070000Y-49276000D03*
X49530000Y-41656000D03*
X54610000Y-49276000D03*
X46990000Y-41656000D03*
X57150000Y-49276000D03*
X44450000Y-41656000D03*
X59690000Y-49276000D03*
X41910000Y-41656000D03*
D20*
X36830000Y-61976000D03*
D21*
X59690000Y-54356000D03*
X39370000Y-61976000D03*
X57150000Y-54356000D03*
X41910000Y-61976000D03*
X54610000Y-54356000D03*
X44450000Y-61976000D03*
X52070000Y-54356000D03*
X46990000Y-61976000D03*
X49530000Y-54356000D03*
X49530000Y-61976000D03*
X46990000Y-54356000D03*
X52070000Y-61976000D03*
X44450000Y-54356000D03*
X54610000Y-61976000D03*
X41910000Y-54356000D03*
X57150000Y-61976000D03*
X39370000Y-54356000D03*
X59690000Y-61976000D03*
X36830000Y-54356000D03*
D15*
X37338000Y-47244000D03*
D22*
X37338000Y-49784000D03*
M02*
