M48
;DRILL file {KiCad 4.0.7} date Mon Dec  3 14:16:41 2018
;FORMAT={-:-/ absolute / inch / decimal}
FMAT,2
INCH,TZ
T1C0.016
T2C0.028
T3C0.031
T4C0.035
T5C0.039
%
G90
G05
M72
T1
X1.95Y-1.5025
X2.12Y-2.25
X2.1262Y-1.7955
X2.175Y-1.7474
X2.397Y-2.4818
X2.4033Y-1.9048
X2.4477Y-1.4725
X2.6502Y-1.7096
X2.67Y-1.55
X2.744Y-1.8244
X2.8338Y-1.859
X2.9896Y-2.1648
X3.099Y-2.14
X3.1662Y-2.2504
X3.211Y-2.194
X3.2675Y-1.2275
X3.2861Y-2.1802
X3.5857Y-1.7233
X3.6057Y-2.2675
X3.64Y-1.4675
X3.6609Y-1.5761
X3.6855Y-1.5397
T2
X1.22Y-1.58
X1.52Y-1.58
X3.64Y-1.39
X3.64Y-1.69
X3.64Y-2.11
X3.94Y-2.11
X4.09Y-2.11
X4.39Y-2.11
T3
X1.21Y-2.3816
X1.21Y-2.48
X1.45Y-2.14
X1.45Y-2.44
X1.55Y-2.14
X1.55Y-2.44
X1.65Y-1.64
X1.65Y-1.94
X1.65Y-2.14
X1.65Y-2.44
X1.75Y-1.64
X1.75Y-1.94
X1.75Y-2.14
X1.75Y-2.44
X1.85Y-1.64
X1.85Y-1.94
X1.85Y-2.14
X1.85Y-2.44
X1.95Y-1.64
X1.95Y-1.94
X1.95Y-2.14
X1.95Y-2.44
X2.05Y-1.64
X2.05Y-1.94
X2.05Y-2.14
X2.05Y-2.44
X2.15Y-1.64
X2.15Y-1.94
X2.15Y-2.14
X2.15Y-2.44
X2.25Y-1.64
X2.25Y-1.94
X2.25Y-2.14
X2.25Y-2.44
X2.35Y-1.64
X2.35Y-1.94
X2.35Y-2.14
X2.35Y-2.44
X2.5Y-1.8416
X2.5Y-1.94
X2.5Y-2.3416
X2.5Y-2.44
X2.55Y-1.1116
X2.55Y-1.21
X2.55Y-1.3516
X2.55Y-1.45
X2.76Y-1.14
X2.76Y-1.44
X2.76Y-1.64
X2.76Y-1.94
X2.86Y-1.14
X2.86Y-1.44
X2.86Y-1.64
X2.86Y-1.94
X2.96Y-1.14
X2.96Y-1.44
X2.96Y-1.64
X2.96Y-1.94
X3.06Y-1.14
X3.06Y-1.44
X3.06Y-1.64
X3.06Y-1.94
X3.16Y-1.14
X3.16Y-1.44
X3.16Y-1.64
X3.16Y-1.94
X3.26Y-1.14
X3.26Y-1.44
X3.26Y-1.64
X3.26Y-1.94
X3.36Y-1.14
X3.36Y-1.44
X3.36Y-1.64
X3.36Y-1.94
X3.46Y-1.14
X3.46Y-1.44
X3.46Y-1.64
X3.46Y-1.94
X3.64Y-1.14
X3.64Y-1.2384
X3.64Y-1.8416
X3.64Y-1.94
X3.8Y-1.14
X3.8Y-1.44
X3.8Y-1.64
X3.8Y-1.94
X3.9Y-1.14
X3.9Y-1.44
X3.9Y-1.64
X3.9Y-1.94
X4.Y-1.14
X4.Y-1.44
X4.Y-1.64
X4.Y-1.94
X4.1Y-1.14
X4.1Y-1.44
X4.1Y-1.64
X4.1Y-1.94
X4.2Y-1.14
X4.2Y-1.44
X4.2Y-1.64
X4.2Y-1.94
X4.3Y-1.14
X4.3Y-1.44
X4.3Y-1.64
X4.3Y-1.94
X4.4Y-1.14
X4.4Y-1.44
X4.4Y-1.64
X4.4Y-1.94
T4
X1.47Y-1.86
X1.47Y-1.96
X2.75Y-2.11
X3.05Y-2.11
X3.18Y-2.11
X3.48Y-2.11
T5
X1.1Y-1.79
X1.1Y-1.89
X1.1Y-1.99
X1.1Y-2.09
X1.1Y-2.19
X1.2Y-1.79
X1.2Y-1.89
X1.2Y-1.99
X1.2Y-2.09
X1.2Y-2.19
X1.25Y-1.22
X1.25Y-1.32
X1.35Y-1.22
X1.35Y-1.32
X1.45Y-1.22
X1.45Y-1.32
X1.55Y-1.22
X1.55Y-1.32
X1.65Y-1.22
X1.65Y-1.32
X1.75Y-1.22
X1.75Y-1.32
X1.85Y-1.22
X1.85Y-1.32
X1.95Y-1.22
X1.95Y-1.32
X2.05Y-1.22
X2.05Y-1.32
X2.15Y-1.22
X2.15Y-1.32
X2.79Y-2.34
X2.79Y-2.44
X2.89Y-2.34
X2.89Y-2.44
X2.99Y-2.34
X2.99Y-2.44
X3.09Y-2.34
X3.09Y-2.44
X3.19Y-2.34
X3.19Y-2.44
X3.29Y-2.34
X3.29Y-2.44
X3.39Y-2.34
X3.39Y-2.44
X3.49Y-2.34
X3.49Y-2.44
X3.59Y-2.34
X3.59Y-2.44
X3.69Y-2.34
X3.69Y-2.44
X3.79Y-2.34
X3.79Y-2.44
X3.89Y-2.34
X3.89Y-2.44
X3.99Y-2.34
X3.99Y-2.44
X4.09Y-2.34
X4.09Y-2.44
X4.19Y-2.34
X4.19Y-2.44
X4.29Y-2.34
X4.29Y-2.44
X4.39Y-2.34
X4.39Y-2.44
T0
M30
