G04 #@! TF.FileFunction,Copper,L1,Top,Signal*
%FSLAX46Y46*%
G04 Gerber Fmt 4.6, Leading zero omitted, Abs format (unit mm)*
G04 Created by KiCad (PCBNEW 4.0.7) date Mon Dec  3 14:16:20 2018*
%MOMM*%
%LPD*%
G01*
G04 APERTURE LIST*
%ADD10C,0.100000*%
%ADD11R,1.700000X1.700000*%
%ADD12O,1.700000X1.700000*%
%ADD13R,1.270000X5.080000*%
%ADD14C,1.600000*%
%ADD15R,1.800000X1.800000*%
%ADD16O,1.800000X1.800000*%
%ADD17C,1.700000*%
%ADD18C,1.400000*%
%ADD19O,1.400000X1.400000*%
%ADD20R,1.600000X2.400000*%
%ADD21O,1.600000X2.400000*%
%ADD22C,1.800000*%
%ADD23C,0.600000*%
%ADD24C,0.750000*%
%ADD25C,0.250000*%
G04 APERTURE END LIST*
D10*
D11*
X30480000Y-55626000D03*
D12*
X27940000Y-55626000D03*
X30480000Y-53086000D03*
X27940000Y-53086000D03*
X30480000Y-50546000D03*
X27940000Y-50546000D03*
X30480000Y-48006000D03*
X27940000Y-48006000D03*
X30480000Y-45466000D03*
X27940000Y-45466000D03*
D11*
X70866005Y-59435989D03*
D12*
X70866005Y-61975989D03*
X73406005Y-59435989D03*
X73406005Y-61975989D03*
X75946005Y-59435989D03*
X75946005Y-61975989D03*
X78486005Y-59435989D03*
X78486005Y-61975989D03*
X81026005Y-59435989D03*
X81026005Y-61975989D03*
X83566005Y-59435989D03*
X83566005Y-61975989D03*
X86106005Y-59435989D03*
X86106005Y-61975989D03*
X88646005Y-59435989D03*
X88646005Y-61975989D03*
X91186005Y-59435989D03*
X91186005Y-61975989D03*
X93726005Y-59435989D03*
X93726005Y-61975989D03*
X96266005Y-59435989D03*
X96266005Y-61975989D03*
X98806005Y-59435989D03*
X98806005Y-61975989D03*
X101346005Y-59435989D03*
X101346005Y-61975989D03*
X103886005Y-59435989D03*
X103886005Y-61975989D03*
X106426005Y-59435989D03*
X106426005Y-61975989D03*
X108966005Y-59435989D03*
X108966005Y-61975989D03*
X111506005Y-59435989D03*
X111506005Y-61975989D03*
D13*
X69596000Y-69850000D03*
X72136000Y-69850000D03*
X74676000Y-69850000D03*
X77216000Y-69850000D03*
X79756000Y-69850000D03*
X82296000Y-69850000D03*
X84836000Y-69850000D03*
X87376000Y-69850000D03*
X89916000Y-69850000D03*
X92456000Y-69850000D03*
X94996000Y-69850000D03*
X97536000Y-69850000D03*
X100076000Y-69850000D03*
X102616000Y-69850000D03*
X105156000Y-69850000D03*
X107696000Y-69850000D03*
X110236000Y-69850000D03*
X35560000Y-69850000D03*
X38100000Y-69850000D03*
X40640000Y-69850000D03*
X43180000Y-69850000D03*
X45720000Y-69850000D03*
X48260000Y-69850000D03*
X50800000Y-69850000D03*
X53340000Y-69850000D03*
X55880000Y-69850000D03*
X58420000Y-69850000D03*
D14*
X64770000Y-30734000D03*
X64770000Y-28234000D03*
X64770000Y-36830000D03*
X64770000Y-34330000D03*
X30734000Y-62992000D03*
X30734000Y-60492000D03*
X92456000Y-49276000D03*
X92456000Y-46776000D03*
X92456000Y-31456000D03*
X92456000Y-28956000D03*
X63500000Y-61976000D03*
X63500000Y-59476000D03*
X63500000Y-49276000D03*
X63500000Y-46776000D03*
D15*
X88392000Y-53594000D03*
D16*
X80772000Y-53594000D03*
D15*
X69850000Y-53594000D03*
D16*
X77470000Y-53594000D03*
D11*
X31750000Y-33528000D03*
D17*
X31750000Y-30988000D03*
X34290000Y-33528000D03*
X34290000Y-30988000D03*
X36830000Y-33528000D03*
X36830000Y-30988000D03*
X39370000Y-33528000D03*
X39370000Y-30988000D03*
X41910000Y-33528000D03*
X41910000Y-30988000D03*
X44450000Y-33528000D03*
X44450000Y-30988000D03*
X46990000Y-33528000D03*
X46990000Y-30988000D03*
X49530000Y-33528000D03*
X49530000Y-30988000D03*
X52070000Y-33528000D03*
X52070000Y-30988000D03*
X54610000Y-33528000D03*
X54610000Y-30988000D03*
D18*
X92456000Y-53594000D03*
D19*
X100076000Y-53594000D03*
D18*
X103886000Y-53594000D03*
D19*
X111506000Y-53594000D03*
D18*
X92456000Y-42926000D03*
D19*
X92456000Y-35306000D03*
D18*
X38608000Y-40132000D03*
D19*
X30988000Y-40132000D03*
D20*
X70104000Y-49276000D03*
D21*
X87884000Y-41656000D03*
X72644000Y-49276000D03*
X85344000Y-41656000D03*
X75184000Y-49276000D03*
X82804000Y-41656000D03*
X77724000Y-49276000D03*
X80264000Y-41656000D03*
X80264000Y-49276000D03*
X77724000Y-41656000D03*
X82804000Y-49276000D03*
X75184000Y-41656000D03*
X85344000Y-49276000D03*
X72644000Y-41656000D03*
X87884000Y-49276000D03*
X70104000Y-41656000D03*
D20*
X96520000Y-49276000D03*
D21*
X111760000Y-41656000D03*
X99060000Y-49276000D03*
X109220000Y-41656000D03*
X101600000Y-49276000D03*
X106680000Y-41656000D03*
X104140000Y-49276000D03*
X104140000Y-41656000D03*
X106680000Y-49276000D03*
X101600000Y-41656000D03*
X109220000Y-49276000D03*
X99060000Y-41656000D03*
X111760000Y-49276000D03*
X96520000Y-41656000D03*
D20*
X70104000Y-36576000D03*
D21*
X87884000Y-28956000D03*
X72644000Y-36576000D03*
X85344000Y-28956000D03*
X75184000Y-36576000D03*
X82804000Y-28956000D03*
X77724000Y-36576000D03*
X80264000Y-28956000D03*
X80264000Y-36576000D03*
X77724000Y-28956000D03*
X82804000Y-36576000D03*
X75184000Y-28956000D03*
X85344000Y-36576000D03*
X72644000Y-28956000D03*
X87884000Y-36576000D03*
X70104000Y-28956000D03*
D20*
X96520000Y-36576000D03*
D21*
X111760000Y-28956000D03*
X99060000Y-36576000D03*
X109220000Y-28956000D03*
X101600000Y-36576000D03*
X106680000Y-28956000D03*
X104140000Y-36576000D03*
X104140000Y-28956000D03*
X106680000Y-36576000D03*
X101600000Y-28956000D03*
X109220000Y-36576000D03*
X99060000Y-28956000D03*
X111760000Y-36576000D03*
X96520000Y-28956000D03*
D20*
X41910000Y-49276000D03*
D21*
X59690000Y-41656000D03*
X44450000Y-49276000D03*
X57150000Y-41656000D03*
X46990000Y-49276000D03*
X54610000Y-41656000D03*
X49530000Y-49276000D03*
X52070000Y-41656000D03*
X52070000Y-49276000D03*
X49530000Y-41656000D03*
X54610000Y-49276000D03*
X46990000Y-41656000D03*
X57150000Y-49276000D03*
X44450000Y-41656000D03*
X59690000Y-49276000D03*
X41910000Y-41656000D03*
D20*
X36830000Y-61976000D03*
D21*
X59690000Y-54356000D03*
X39370000Y-61976000D03*
X57150000Y-54356000D03*
X41910000Y-61976000D03*
X54610000Y-54356000D03*
X44450000Y-61976000D03*
X52070000Y-54356000D03*
X46990000Y-61976000D03*
X49530000Y-54356000D03*
X49530000Y-61976000D03*
X46990000Y-54356000D03*
X52070000Y-61976000D03*
X44450000Y-54356000D03*
X54610000Y-61976000D03*
X41910000Y-54356000D03*
X57150000Y-61976000D03*
X39370000Y-54356000D03*
X59690000Y-61976000D03*
X36830000Y-54356000D03*
D15*
X37338000Y-47244000D03*
D22*
X37338000Y-49784000D03*
D23*
X67818000Y-39370000D03*
X91076200Y-43772900D03*
X69698600Y-46338500D03*
X53848000Y-57150000D03*
X60884100Y-63037300D03*
X75935300Y-54986000D03*
X78715800Y-54357100D03*
X49530000Y-38163500D03*
X80420400Y-57159200D03*
X62172400Y-37401200D03*
X83465900Y-55378200D03*
X71978000Y-47218700D03*
X55245000Y-44384900D03*
X54006700Y-45605600D03*
X61043500Y-48382200D03*
X91584500Y-57594800D03*
X81560100Y-55726900D03*
X93611800Y-39108200D03*
X92456000Y-37274500D03*
X82994500Y-31178500D03*
X92986400Y-40034100D03*
X67314800Y-43424100D03*
D24*
X102552000Y-56261000D02*
X111506000Y-56261000D01*
X100076000Y-53784500D02*
X102552000Y-56261000D01*
X100076000Y-53594000D02*
X100076000Y-53784500D01*
X67818000Y-39370000D02*
X67818000Y-41656000D01*
X67818000Y-41656000D02*
X70104000Y-41656000D01*
X63500000Y-45974000D02*
X67818000Y-41656000D01*
X63500000Y-46776000D02*
X63500000Y-45974000D01*
X66294000Y-49570000D02*
X63500000Y-46776000D01*
X66294000Y-57404000D02*
X66294000Y-49570000D01*
X64222000Y-59476000D02*
X66294000Y-57404000D01*
X63500000Y-59476000D02*
X64222000Y-59476000D01*
X70104000Y-41656000D02*
X67818000Y-41656000D01*
X96520000Y-41656000D02*
X94488000Y-41656000D01*
X94488000Y-30734000D02*
X94488000Y-41656000D01*
X96266000Y-28956000D02*
X94488000Y-30734000D01*
X96520000Y-28956000D02*
X96266000Y-28956000D01*
X96520000Y-28956000D02*
X96520000Y-26162000D01*
X92456000Y-28956000D02*
X92456000Y-26162000D01*
X67818000Y-41656000D02*
X67818000Y-39370000D01*
X69088000Y-28956000D02*
X70104000Y-28956000D01*
X67818000Y-30226000D02*
X69088000Y-28956000D01*
X67818000Y-39370000D02*
X67818000Y-30226000D01*
X111506000Y-59436000D02*
X114554000Y-59436000D01*
X110236000Y-67060000D02*
X110236000Y-69850000D01*
X114554000Y-62742000D02*
X110236000Y-67060000D01*
X114554000Y-59436000D02*
X114554000Y-62742000D01*
X70104000Y-26670000D02*
X70104000Y-28956000D01*
X70612000Y-26162000D02*
X70104000Y-26670000D01*
X92456000Y-26162000D02*
X70612000Y-26162000D01*
X113284000Y-26162000D02*
X96520000Y-26162000D01*
X114554000Y-27432000D02*
X113284000Y-26162000D01*
X114554000Y-59436000D02*
X114554000Y-27432000D01*
X96520000Y-26162000D02*
X92456000Y-26162000D01*
X92456000Y-46776000D02*
X92456000Y-42926000D01*
X93218000Y-42926000D02*
X94488000Y-41656000D01*
X92456000Y-42926000D02*
X93218000Y-42926000D01*
X111506000Y-59436000D02*
X111506000Y-56261000D01*
X111506000Y-56261000D02*
X111506000Y-53594000D01*
D25*
X89729700Y-53594000D02*
X88392000Y-53594000D01*
X97542000Y-45781700D02*
X89729700Y-53594000D01*
X106619600Y-45781700D02*
X97542000Y-45781700D01*
X109220000Y-43181300D02*
X106619600Y-45781700D01*
X109220000Y-41656000D02*
X109220000Y-43181300D01*
X70866005Y-59435989D02*
X71674011Y-59435989D01*
X71674011Y-59435989D02*
X73299700Y-57810300D01*
X73299700Y-57810300D02*
X73888700Y-57810300D01*
X73888700Y-57810300D02*
X73914000Y-57785000D01*
X73914000Y-57785000D02*
X73914000Y-57810300D01*
X69596000Y-60706000D02*
X70866000Y-59436000D01*
X69596000Y-69850000D02*
X69596000Y-60706000D01*
X111760000Y-28956000D02*
X111760000Y-27430700D01*
X73299700Y-57810300D02*
X72041300Y-59068700D01*
X81921300Y-57810300D02*
X73914000Y-57810300D01*
X73914000Y-57810300D02*
X73299700Y-57810300D01*
X84184200Y-55547400D02*
X81921300Y-57810300D01*
X84184200Y-55532500D02*
X84184200Y-55547400D01*
X91690700Y-48026000D02*
X84184200Y-55532500D01*
X92849400Y-48026000D02*
X91690700Y-48026000D01*
X97701400Y-43174000D02*
X92849400Y-48026000D01*
X97701400Y-40845700D02*
X97701400Y-43174000D01*
X95394600Y-38538900D02*
X97701400Y-40845700D01*
X95394600Y-35159600D02*
X95394600Y-38538900D01*
X95503600Y-35050600D02*
X95394600Y-35159600D01*
X100044300Y-35050600D02*
X95503600Y-35050600D01*
X105410000Y-29684900D02*
X100044300Y-35050600D01*
X105410000Y-28173700D02*
X105410000Y-29684900D01*
X106153000Y-27430700D02*
X105410000Y-28173700D01*
X111760000Y-27430700D02*
X106153000Y-27430700D01*
X39497000Y-47625000D02*
X37338000Y-49784000D01*
X39497000Y-45783500D02*
X39497000Y-47625000D01*
X33845500Y-40132000D02*
X39497000Y-45783500D01*
X30988000Y-40132000D02*
X33845500Y-40132000D01*
X88510600Y-46338500D02*
X91076200Y-43772900D01*
X69698600Y-46338500D02*
X88510600Y-46338500D01*
X30480000Y-53086000D02*
X31242000Y-52324000D01*
X39370000Y-52578000D02*
X39370000Y-54356000D01*
X39116000Y-52324000D02*
X39370000Y-52578000D01*
X31242000Y-52324000D02*
X39116000Y-52324000D01*
X36830000Y-58801000D02*
X36830000Y-58674000D01*
X36830000Y-58674000D02*
X38354000Y-57150000D01*
X53848000Y-57150000D02*
X38354000Y-57150000D01*
X36830000Y-58801000D02*
X36830000Y-61976000D01*
X29210000Y-36068000D02*
X31750000Y-33528000D01*
X29210000Y-60960000D02*
X29210000Y-36068000D01*
X29972000Y-61722000D02*
X29210000Y-60960000D01*
X31750000Y-61722000D02*
X29972000Y-61722000D01*
X35560000Y-65532000D02*
X31750000Y-61722000D01*
X35560000Y-69850000D02*
X35560000Y-65532000D01*
X38100000Y-65786000D02*
X38100000Y-69850000D01*
X39370000Y-64516000D02*
X38100000Y-65786000D01*
X39370000Y-61976000D02*
X39370000Y-64516000D01*
X40640000Y-65786000D02*
X40640000Y-69850000D01*
X41910000Y-64516000D02*
X40640000Y-65786000D01*
X41910000Y-61976000D02*
X41910000Y-64516000D01*
X43180000Y-65786000D02*
X43180000Y-69850000D01*
X44450000Y-64516000D02*
X43180000Y-65786000D01*
X44450000Y-61976000D02*
X44450000Y-64516000D01*
X45720000Y-65786000D02*
X45720000Y-69850000D01*
X46990000Y-64516000D02*
X45720000Y-65786000D01*
X46990000Y-61976000D02*
X46990000Y-64516000D01*
X48260000Y-65786000D02*
X48260000Y-69850000D01*
X49530000Y-64516000D02*
X48260000Y-65786000D01*
X49530000Y-61976000D02*
X49530000Y-64516000D01*
X50800000Y-65786000D02*
X50800000Y-69850000D01*
X52070000Y-64516000D02*
X50800000Y-65786000D01*
X52070000Y-61976000D02*
X52070000Y-64516000D01*
X53340000Y-65786000D02*
X53340000Y-69850000D01*
X54610000Y-64516000D02*
X53340000Y-65786000D01*
X54610000Y-61976000D02*
X54610000Y-64516000D01*
X55880000Y-65786000D02*
X55880000Y-69850000D01*
X57150000Y-64516000D02*
X55880000Y-65786000D01*
X57150000Y-61976000D02*
X57150000Y-64516000D01*
X58420000Y-66040000D02*
X58420000Y-69850000D01*
X59436000Y-65024000D02*
X58420000Y-66040000D01*
X61214000Y-65024000D02*
X59436000Y-65024000D01*
X61722000Y-64516000D02*
X61214000Y-65024000D01*
X61722000Y-37846000D02*
X61722000Y-64516000D01*
X57404000Y-33528000D02*
X61722000Y-37846000D01*
X54610000Y-33528000D02*
X57404000Y-33528000D01*
X34290000Y-36576000D02*
X34290000Y-33528000D01*
X36576000Y-38862000D02*
X34290000Y-36576000D01*
X36576000Y-40640000D02*
X36576000Y-38862000D01*
X40640000Y-44704000D02*
X36576000Y-40640000D01*
X40640000Y-51054000D02*
X40640000Y-44704000D01*
X41910000Y-52324000D02*
X40640000Y-51054000D01*
X41910000Y-54356000D02*
X41910000Y-52324000D01*
X36830000Y-36068000D02*
X36830000Y-33528000D01*
X39370000Y-38608000D02*
X36830000Y-36068000D01*
X42222000Y-38608000D02*
X39370000Y-38608000D01*
X43180000Y-39566000D02*
X42222000Y-38608000D01*
X43180000Y-51054000D02*
X43180000Y-39566000D01*
X44450000Y-52324000D02*
X43180000Y-51054000D01*
X44450000Y-54356000D02*
X44450000Y-52324000D01*
X39370000Y-35560000D02*
X39370000Y-33528000D01*
X41910000Y-38100000D02*
X39370000Y-35560000D01*
X44704000Y-38100000D02*
X41910000Y-38100000D01*
X45720000Y-39116000D02*
X44704000Y-38100000D01*
X45720000Y-51054000D02*
X45720000Y-39116000D01*
X46990000Y-52324000D02*
X45720000Y-51054000D01*
X46990000Y-54356000D02*
X46990000Y-52324000D01*
X41910000Y-35306000D02*
X41910000Y-33528000D01*
X43942000Y-37338000D02*
X41910000Y-35306000D01*
X47498000Y-37338000D02*
X43942000Y-37338000D01*
X48260000Y-38100000D02*
X47498000Y-37338000D01*
X48260000Y-51054000D02*
X48260000Y-38100000D01*
X49530000Y-52324000D02*
X48260000Y-51054000D01*
X49530000Y-54356000D02*
X49530000Y-52324000D01*
X44450000Y-35306000D02*
X44450000Y-33528000D01*
X45974000Y-36830000D02*
X44450000Y-35306000D01*
X50038000Y-36830000D02*
X45974000Y-36830000D01*
X50800000Y-37592000D02*
X50038000Y-36830000D01*
X50800000Y-51054000D02*
X50800000Y-37592000D01*
X52070000Y-52324000D02*
X50800000Y-51054000D01*
X52070000Y-54356000D02*
X52070000Y-52324000D01*
X46990000Y-35560000D02*
X46990000Y-33528000D01*
X47752000Y-36322000D02*
X46990000Y-35560000D01*
X51308000Y-36322000D02*
X47752000Y-36322000D01*
X53340000Y-38354000D02*
X51308000Y-36322000D01*
X53340000Y-51054000D02*
X53340000Y-38354000D01*
X54610000Y-52324000D02*
X53340000Y-51054000D01*
X54610000Y-54356000D02*
X54610000Y-52324000D01*
X49530000Y-35306000D02*
X49530000Y-33528000D01*
X50038000Y-35814000D02*
X49530000Y-35306000D01*
X54610000Y-35814000D02*
X50038000Y-35814000D01*
X55880000Y-37084000D02*
X54610000Y-35814000D01*
X55880000Y-50800000D02*
X55880000Y-37084000D01*
X57150000Y-52070000D02*
X55880000Y-50800000D01*
X57150000Y-54356000D02*
X57150000Y-52070000D01*
X58420000Y-38100000D02*
X58420000Y-38608000D01*
X59690000Y-51816000D02*
X59690000Y-54356000D01*
X58420000Y-50546000D02*
X59690000Y-51816000D01*
X58420000Y-38608000D02*
X58420000Y-50546000D01*
X58420000Y-36830000D02*
X58420000Y-38100000D01*
X56642000Y-35052000D02*
X58420000Y-36830000D01*
X52578000Y-35052000D02*
X56642000Y-35052000D01*
X52070000Y-34544000D02*
X52578000Y-35052000D01*
X52070000Y-33528000D02*
X52070000Y-34544000D01*
X58420000Y-38100000D02*
X58420000Y-38608000D01*
X73406005Y-59435989D02*
X74213911Y-59435989D01*
X74213911Y-59435989D02*
X74581300Y-59068600D01*
X72136000Y-60706000D02*
X72136000Y-69850000D01*
X73406000Y-59436000D02*
X72136000Y-60706000D01*
X97464800Y-50801300D02*
X106680000Y-50801300D01*
X90005400Y-58260700D02*
X97464800Y-50801300D01*
X75389200Y-58260700D02*
X90005400Y-58260700D01*
X74581300Y-59068600D02*
X75389200Y-58260700D01*
X106680000Y-49276000D02*
X106680000Y-50801300D01*
X41910000Y-49276000D02*
X41910000Y-50736500D01*
X43180000Y-52006500D02*
X43180000Y-52895500D01*
X41910000Y-50736500D02*
X43180000Y-52006500D01*
X44640500Y-56451500D02*
X43942000Y-56451500D01*
X43180000Y-55689500D02*
X43180000Y-52895500D01*
X43942000Y-56451500D02*
X43180000Y-55689500D01*
X44767500Y-56451500D02*
X44767500Y-56449800D01*
X44196000Y-56451500D02*
X44640500Y-56451500D01*
X44640500Y-56451500D02*
X44767500Y-56451500D01*
X56160200Y-56449800D02*
X44767500Y-56449800D01*
X60884100Y-61173700D02*
X56160200Y-56449800D01*
X60884100Y-63037300D02*
X60884100Y-61173700D01*
X44767500Y-56449800D02*
X44500700Y-56449800D01*
X74676000Y-60706000D02*
X74676000Y-69850000D01*
X75946000Y-59436000D02*
X74676000Y-60706000D01*
X79407900Y-51657400D02*
X80264000Y-50801300D01*
X79407900Y-54554900D02*
X79407900Y-51657400D01*
X78976800Y-54986000D02*
X79407900Y-54554900D01*
X75935300Y-54986000D02*
X78976800Y-54986000D01*
X80264000Y-49276000D02*
X80264000Y-50801300D01*
X77216000Y-60706000D02*
X77216000Y-69850000D01*
X78486000Y-59436000D02*
X77216000Y-60706000D01*
X77724000Y-49276000D02*
X77724000Y-50801300D01*
X78715800Y-51793100D02*
X78715800Y-54357100D01*
X77724000Y-50801300D02*
X78715800Y-51793100D01*
X79756000Y-60706000D02*
X79756000Y-69850000D01*
X81026000Y-59436000D02*
X79756000Y-60706000D01*
X49530000Y-38163500D02*
X49530000Y-39687500D01*
X82296000Y-60706000D02*
X82296000Y-69850000D01*
X83566000Y-59436000D02*
X82296000Y-60706000D01*
X49530000Y-41656000D02*
X49530000Y-39687500D01*
X70093600Y-57159200D02*
X80420400Y-57159200D01*
X66624100Y-60628700D02*
X70093600Y-57159200D01*
X63055800Y-60628700D02*
X66624100Y-60628700D01*
X62172400Y-59745300D02*
X63055800Y-60628700D01*
X62172400Y-37401200D02*
X62172400Y-59745300D01*
X84836000Y-60706000D02*
X84836000Y-69850000D01*
X86106000Y-59436000D02*
X84836000Y-60706000D01*
X54024300Y-45605600D02*
X54006700Y-45605600D01*
X55245000Y-44384900D02*
X54024300Y-45605600D01*
X83465800Y-55378200D02*
X83465900Y-55378200D01*
X83465800Y-54155800D02*
X83465800Y-55378200D01*
X81534000Y-52224000D02*
X83465800Y-54155800D01*
X81534000Y-48449500D02*
X81534000Y-52224000D01*
X80303200Y-47218700D02*
X81534000Y-48449500D01*
X71978000Y-47218700D02*
X80303200Y-47218700D01*
X53340950Y-53594000D02*
X53340950Y-52388450D01*
X53340950Y-52388450D02*
X52070000Y-51117500D01*
X52070000Y-51117500D02*
X52070000Y-50800000D01*
X53340950Y-52451000D02*
X53340950Y-53402550D01*
X52070000Y-51054000D02*
X52070000Y-51117500D01*
X53340950Y-52388450D02*
X53340950Y-52451000D01*
X53340950Y-52451000D02*
X53340950Y-52958050D01*
X52070000Y-51117500D02*
X53340950Y-52388450D01*
X53340950Y-52958050D02*
X53340950Y-53402550D01*
X53340950Y-53402550D02*
X53340950Y-53594000D01*
X53340950Y-53594000D02*
X53340950Y-55123250D01*
X61043500Y-48382200D02*
X61043500Y-55006200D01*
X61043500Y-55006200D02*
X60118900Y-55930800D01*
X60118900Y-55930800D02*
X54148500Y-55930800D01*
X53340950Y-55123250D02*
X54148500Y-55930800D01*
X87376000Y-60706000D02*
X87376000Y-69850000D01*
X88646000Y-59436000D02*
X87376000Y-60706000D01*
X52070000Y-51054000D02*
X52070000Y-50800000D01*
X52070000Y-50800000D02*
X52070000Y-49276000D01*
X89916000Y-60706000D02*
X89916000Y-69850000D01*
X91186000Y-59436000D02*
X89916000Y-60706000D01*
X91186000Y-59436000D02*
X91186000Y-58260700D01*
X91584500Y-57862200D02*
X91584500Y-57594800D01*
X91186000Y-58260700D02*
X91584500Y-57862200D01*
X92456000Y-60706000D02*
X92456000Y-69850000D01*
X93726000Y-59436000D02*
X92456000Y-60706000D01*
X70104000Y-49276000D02*
X70104000Y-50801300D01*
X75029600Y-55726900D02*
X70104000Y-50801300D01*
X81560100Y-55726900D02*
X75029600Y-55726900D01*
X94996000Y-60706000D02*
X94996000Y-69850000D01*
X96266000Y-59436000D02*
X94996000Y-60706000D01*
X97536000Y-60706000D02*
X97536000Y-69850000D01*
X98806000Y-59436000D02*
X97536000Y-60706000D01*
X100076000Y-60706000D02*
X100076000Y-69850000D01*
X101346000Y-59436000D02*
X100076000Y-60706000D01*
X102616000Y-60706000D02*
X102616000Y-69850000D01*
X103886000Y-59436000D02*
X102616000Y-60706000D01*
X105156000Y-60706000D02*
X105156000Y-69850000D01*
X106426000Y-59436000D02*
X105156000Y-60706000D01*
X107696000Y-60706000D02*
X107696000Y-69850000D01*
X108966000Y-59436000D02*
X107696000Y-60706000D01*
X89789000Y-35306000D02*
X92456000Y-35306000D01*
X85344000Y-30861000D02*
X89789000Y-35306000D01*
X85344000Y-28956000D02*
X85344000Y-30861000D01*
X75184000Y-36576000D02*
X82804000Y-28956000D01*
X96520000Y-36576000D02*
X97982800Y-36576000D01*
X97982800Y-36576000D02*
X99060000Y-36576000D01*
X111760000Y-41656000D02*
X111760000Y-40130700D01*
X100007700Y-38600900D02*
X97982800Y-36576000D01*
X110230200Y-38600900D02*
X100007700Y-38600900D01*
X111760000Y-40130700D02*
X110230200Y-38600900D01*
X106680000Y-42799000D02*
X106680000Y-41656000D01*
X105791000Y-43688000D02*
X106680000Y-42799000D01*
X102616000Y-43688000D02*
X105791000Y-43688000D01*
X101600000Y-42672000D02*
X102616000Y-43688000D01*
X101600000Y-41656000D02*
X101600000Y-42672000D01*
X101600000Y-49276000D02*
X104140000Y-49276000D01*
X104140000Y-36576000D02*
X106680000Y-36576000D01*
X70104000Y-36576000D02*
X70104000Y-38101300D01*
X71110900Y-39108200D02*
X93611800Y-39108200D01*
X70104000Y-38101300D02*
X71110900Y-39108200D01*
X91122500Y-38608000D02*
X92456000Y-37274500D01*
X86931500Y-38608000D02*
X91122500Y-38608000D01*
X86614000Y-38290500D02*
X86931500Y-38608000D01*
X86614000Y-34798000D02*
X86614000Y-38290500D01*
X82994500Y-31178500D02*
X86614000Y-34798000D01*
X89596400Y-43424100D02*
X92986400Y-40034100D01*
X67314800Y-43424100D02*
X89596400Y-43424100D01*
M02*
